<mxfile host="Electron" modified="2023-04-20T05:57:30.516Z" agent="Mozilla/5.0 (Windows NT 10.0; Win64; x64) AppleWebKit/537.36 (KHTML, like Gecko) draw.io/21.1.2 Chrome/106.0.5249.199 Electron/21.4.3 Safari/537.36" etag="aD7FbznOice4faljwj5h" version="21.1.2" type="device">
  <diagram id="YIKedPCZU93ZtMyv0vOA" name="Page-1">
    <mxGraphModel dx="2754" dy="990" grid="1" gridSize="10" guides="1" tooltips="1" connect="1" arrows="1" fold="1" page="1" pageScale="1" pageWidth="827" pageHeight="1169" math="0" shadow="0">
      <root>
        <mxCell id="0" />
        <mxCell id="1" parent="0" />
        <mxCell id="p-FMet9S-FCSw5p0kF5i-1" value="system-security-plans/ACME_SSP/system-security-plan.json" style="rounded=0;whiteSpace=wrap;html=1;fillColor=#f8cecc;strokeColor=#b85450;" parent="1" vertex="1">
          <mxGeometry x="-510" y="290" width="210" height="70" as="geometry" />
        </mxCell>
        <mxCell id="p-FMet9S-FCSw5p0kF5i-32" style="edgeStyle=orthogonalEdgeStyle;rounded=0;orthogonalLoop=1;jettySize=auto;html=1;" parent="1" source="p-FMet9S-FCSw5p0kF5i-4" target="p-FMet9S-FCSw5p0kF5i-9" edge="1">
          <mxGeometry relative="1" as="geometry" />
        </mxCell>
        <mxCell id="p-FMet9S-FCSw5p0kF5i-4" value="catalogs/ACME_custom/catalog.json" style="rounded=0;whiteSpace=wrap;html=1;fillColor=#f8cecc;strokeColor=#b85450;strokeWidth=4;" parent="1" vertex="1">
          <mxGeometry x="-1460" y="290" width="210" height="70" as="geometry" />
        </mxCell>
        <mxCell id="p-FMet9S-FCSw5p0kF5i-33" style="edgeStyle=orthogonalEdgeStyle;rounded=0;orthogonalLoop=1;jettySize=auto;html=1;entryX=0;entryY=0.5;entryDx=0;entryDy=0;" parent="1" source="p-FMet9S-FCSw5p0kF5i-5" target="p-FMet9S-FCSw5p0kF5i-9" edge="1">
          <mxGeometry relative="1" as="geometry" />
        </mxCell>
        <mxCell id="p-FMet9S-FCSw5p0kF5i-5" value="catalogs/NIST_800_53_r4/catalog.json" style="rounded=0;whiteSpace=wrap;html=1;fillColor=#f8cecc;strokeColor=#b85450;strokeWidth=4;" parent="1" vertex="1">
          <mxGeometry x="-1460" y="400" width="210" height="70" as="geometry" />
        </mxCell>
        <mxCell id="p-FMet9S-FCSw5p0kF5i-8" value="ACME_custom_controls" style="rounded=0;whiteSpace=wrap;html=1;fillColor=#dae8fc;strokeColor=#6c8ebf;" parent="1" vertex="1">
          <mxGeometry x="-1480" y="170" width="210" height="50" as="geometry" />
        </mxCell>
        <mxCell id="p-FMet9S-FCSw5p0kF5i-34" style="edgeStyle=orthogonalEdgeStyle;rounded=0;orthogonalLoop=1;jettySize=auto;html=1;entryX=0;entryY=0.5;entryDx=0;entryDy=0;" parent="1" source="p-FMet9S-FCSw5p0kF5i-9" target="p-FMet9S-FCSw5p0kF5i-12" edge="1">
          <mxGeometry relative="1" as="geometry" />
        </mxCell>
        <mxCell id="p-FMet9S-FCSw5p0kF5i-9" value="profiles/ACME_official/profile.json" style="rounded=0;whiteSpace=wrap;html=1;fillColor=#f8cecc;strokeColor=#b85450;strokeWidth=4;" parent="1" vertex="1">
          <mxGeometry x="-1130" y="290" width="210" height="70" as="geometry" />
        </mxCell>
        <mxCell id="p-FMet9S-FCSw5p0kF5i-10" value="ACME_custom_controls" style="rounded=0;whiteSpace=wrap;html=1;fillColor=#dae8fc;strokeColor=#6c8ebf;" parent="1" vertex="1">
          <mxGeometry x="-1470" y="180" width="210" height="50" as="geometry" />
        </mxCell>
        <mxCell id="p-FMet9S-FCSw5p0kF5i-11" value="md_ACME_custom_controls" style="rounded=0;whiteSpace=wrap;html=1;fillColor=#dae8fc;strokeColor=#6c8ebf;" parent="1" vertex="1">
          <mxGeometry x="-1460" y="190" width="210" height="50" as="geometry" />
        </mxCell>
        <mxCell id="0Mx2ZLFX2AhZIYMiqBFt-13" style="edgeStyle=orthogonalEdgeStyle;rounded=0;orthogonalLoop=1;jettySize=auto;html=1;entryX=0;entryY=0.5;entryDx=0;entryDy=0;strokeWidth=6;strokeColor=#C7C7C7;" edge="1" parent="1" source="p-FMet9S-FCSw5p0kF5i-12" target="p-FMet9S-FCSw5p0kF5i-22">
          <mxGeometry relative="1" as="geometry" />
        </mxCell>
        <mxCell id="p-FMet9S-FCSw5p0kF5i-12" value="profiles/ACME_int_guidance/profile.json" style="rounded=0;whiteSpace=wrap;html=1;fillColor=#f8cecc;strokeColor=#b85450;strokeWidth=4;" parent="1" vertex="1">
          <mxGeometry x="-850" y="290" width="250" height="70" as="geometry" />
        </mxCell>
        <mxCell id="p-FMet9S-FCSw5p0kF5i-13" value="ACME_custom_controls" style="rounded=0;whiteSpace=wrap;html=1;fillColor=#dae8fc;strokeColor=#6c8ebf;" parent="1" vertex="1">
          <mxGeometry x="-1140" y="170" width="210" height="50" as="geometry" />
        </mxCell>
        <mxCell id="p-FMet9S-FCSw5p0kF5i-14" value="ACME_custom_controls" style="rounded=0;whiteSpace=wrap;html=1;fillColor=#dae8fc;strokeColor=#6c8ebf;" parent="1" vertex="1">
          <mxGeometry x="-1130" y="180" width="210" height="50" as="geometry" />
        </mxCell>
        <mxCell id="p-FMet9S-FCSw5p0kF5i-15" value="md_ACME_official_profile" style="rounded=0;whiteSpace=wrap;html=1;fillColor=#dae8fc;strokeColor=#6c8ebf;" parent="1" vertex="1">
          <mxGeometry x="-1120" y="190" width="210" height="50" as="geometry" />
        </mxCell>
        <mxCell id="p-FMet9S-FCSw5p0kF5i-19" value="ACME_custom_controls" style="rounded=0;whiteSpace=wrap;html=1;fillColor=#dae8fc;strokeColor=#6c8ebf;" parent="1" vertex="1">
          <mxGeometry x="-850" y="170" width="210" height="50" as="geometry" />
        </mxCell>
        <mxCell id="p-FMet9S-FCSw5p0kF5i-20" value="ACME_custom_controls" style="rounded=0;whiteSpace=wrap;html=1;fillColor=#dae8fc;strokeColor=#6c8ebf;" parent="1" vertex="1">
          <mxGeometry x="-840" y="180" width="210" height="50" as="geometry" />
        </mxCell>
        <mxCell id="p-FMet9S-FCSw5p0kF5i-21" value="md_ACME_internal_profile" style="rounded=0;whiteSpace=wrap;html=1;fillColor=#dae8fc;strokeColor=#6c8ebf;" parent="1" vertex="1">
          <mxGeometry x="-830" y="190" width="210" height="50" as="geometry" />
        </mxCell>
        <mxCell id="p-FMet9S-FCSw5p0kF5i-22" value="ACME_custom_controls" style="rounded=0;whiteSpace=wrap;html=1;fillColor=#dae8fc;strokeColor=#6c8ebf;" parent="1" vertex="1">
          <mxGeometry x="-520" y="170" width="210" height="50" as="geometry" />
        </mxCell>
        <mxCell id="p-FMet9S-FCSw5p0kF5i-23" value="ACME_custom_controls" style="rounded=0;whiteSpace=wrap;html=1;fillColor=#dae8fc;strokeColor=#6c8ebf;" parent="1" vertex="1">
          <mxGeometry x="-510" y="180" width="210" height="50" as="geometry" />
        </mxCell>
        <mxCell id="p-FMet9S-FCSw5p0kF5i-24" value="md_ACME_platform_ssp" style="rounded=0;whiteSpace=wrap;html=1;fillColor=#dae8fc;strokeColor=#6c8ebf;" parent="1" vertex="1">
          <mxGeometry x="-500" y="190" width="210" height="50" as="geometry" />
        </mxCell>
        <mxCell id="p-FMet9S-FCSw5p0kF5i-25" value="ACME_platform_ssp.md" style="rounded=0;whiteSpace=wrap;html=1;fillColor=#ffe6cc;strokeColor=#b85450;" parent="1" vertex="1">
          <mxGeometry x="-230" y="290" width="210" height="70" as="geometry" />
        </mxCell>
        <mxCell id="p-FMet9S-FCSw5p0kF5i-26" value="acme_platform_ssp.docx" style="rounded=0;whiteSpace=wrap;html=1;fillColor=#ffe6cc;strokeColor=#b85450;" parent="1" vertex="1">
          <mxGeometry x="50" y="290" width="210" height="70" as="geometry" />
        </mxCell>
        <mxCell id="p-FMet9S-FCSw5p0kF5i-27" value="" style="shape=flexArrow;endArrow=classic;startArrow=classic;html=1;entryX=0.5;entryY=1;entryDx=0;entryDy=0;exitX=0.5;exitY=0;exitDx=0;exitDy=0;" parent="1" source="p-FMet9S-FCSw5p0kF5i-4" target="p-FMet9S-FCSw5p0kF5i-11" edge="1">
          <mxGeometry width="100" height="100" relative="1" as="geometry">
            <mxPoint x="-1380" y="340" as="sourcePoint" />
            <mxPoint x="-1280" y="240" as="targetPoint" />
          </mxGeometry>
        </mxCell>
        <mxCell id="p-FMet9S-FCSw5p0kF5i-28" value="" style="shape=flexArrow;endArrow=classic;startArrow=classic;html=1;entryX=0.5;entryY=1;entryDx=0;entryDy=0;exitX=0.5;exitY=0;exitDx=0;exitDy=0;" parent="1" edge="1">
          <mxGeometry width="100" height="100" relative="1" as="geometry">
            <mxPoint x="-1015.5" y="290" as="sourcePoint" />
            <mxPoint x="-1015.5" y="240" as="targetPoint" />
          </mxGeometry>
        </mxCell>
        <mxCell id="p-FMet9S-FCSw5p0kF5i-29" value="" style="shape=flexArrow;endArrow=classic;startArrow=classic;html=1;entryX=0.5;entryY=1;entryDx=0;entryDy=0;exitX=0.5;exitY=0;exitDx=0;exitDy=0;" parent="1" edge="1">
          <mxGeometry width="100" height="100" relative="1" as="geometry">
            <mxPoint x="-725.5" y="290" as="sourcePoint" />
            <mxPoint x="-725.5" y="240" as="targetPoint" />
          </mxGeometry>
        </mxCell>
        <mxCell id="p-FMet9S-FCSw5p0kF5i-40" value="" style="shape=flexArrow;endArrow=classic;html=1;" parent="1" edge="1">
          <mxGeometry width="50" height="50" relative="1" as="geometry">
            <mxPoint x="-300" y="324.5" as="sourcePoint" />
            <mxPoint x="-230" y="324.5" as="targetPoint" />
          </mxGeometry>
        </mxCell>
        <mxCell id="p-FMet9S-FCSw5p0kF5i-42" value="" style="shape=flexArrow;endArrow=classic;html=1;fillColor=#d5e8d4;strokeColor=#82b366;" parent="1" edge="1">
          <mxGeometry width="50" height="50" relative="1" as="geometry">
            <mxPoint x="-20" y="324.5" as="sourcePoint" />
            <mxPoint x="50" y="324.5" as="targetPoint" />
          </mxGeometry>
        </mxCell>
        <mxCell id="bYRtY9nZm9wins2JhYsX-1" value="&lt;font style=&quot;font-size: 15px;&quot;&gt;pandoc&lt;/font&gt;" style="text;html=1;align=center;verticalAlign=middle;resizable=0;points=[];autosize=1;strokeColor=none;fillColor=none;" parent="1" vertex="1">
          <mxGeometry x="-20" y="280" width="70" height="30" as="geometry" />
        </mxCell>
        <mxCell id="bYRtY9nZm9wins2JhYsX-2" value="assets/ACME-comp-def.CSV" style="rounded=0;whiteSpace=wrap;html=1;fillColor=#f8cecc;strokeColor=#b85450;strokeWidth=4;" parent="1" vertex="1">
          <mxGeometry x="-1130" y="404" width="210" height="63.91" as="geometry" />
        </mxCell>
        <mxCell id="0Mx2ZLFX2AhZIYMiqBFt-12" style="edgeStyle=orthogonalEdgeStyle;rounded=0;orthogonalLoop=1;jettySize=auto;html=1;exitX=1;exitY=0.5;exitDx=0;exitDy=0;entryX=0;entryY=0.5;entryDx=0;entryDy=0;strokeWidth=6;startFill=1;endFill=1;fillOpacity=100;strokeColor=#C7C7C7;" edge="1" parent="1" source="bYRtY9nZm9wins2JhYsX-4" target="p-FMet9S-FCSw5p0kF5i-22">
          <mxGeometry relative="1" as="geometry" />
        </mxCell>
        <mxCell id="bYRtY9nZm9wins2JhYsX-4" value="component-definitions/ACME/component-definition.json" style="rounded=0;whiteSpace=wrap;html=1;fillColor=#f8cecc;strokeColor=#b85450;" parent="1" vertex="1">
          <mxGeometry x="-855" y="405" width="255" height="63.91" as="geometry" />
        </mxCell>
        <mxCell id="bYRtY9nZm9wins2JhYsX-6" value="ACME_custom_controls" style="rounded=0;whiteSpace=wrap;html=1;fillColor=#dae8fc;strokeColor=#6c8ebf;" parent="1" vertex="1">
          <mxGeometry x="-855" y="535" width="210" height="50" as="geometry" />
        </mxCell>
        <mxCell id="bYRtY9nZm9wins2JhYsX-7" value="ACME_custom_controls" style="rounded=0;whiteSpace=wrap;html=1;fillColor=#dae8fc;strokeColor=#6c8ebf;" parent="1" vertex="1">
          <mxGeometry x="-845" y="545" width="210" height="50" as="geometry" />
        </mxCell>
        <mxCell id="bYRtY9nZm9wins2JhYsX-8" value="md_ACME_comp_def" style="rounded=0;whiteSpace=wrap;html=1;fillColor=#dae8fc;strokeColor=#6c8ebf;" parent="1" vertex="1">
          <mxGeometry x="-835" y="555" width="210" height="50" as="geometry" />
        </mxCell>
        <mxCell id="bYRtY9nZm9wins2JhYsX-10" value="" style="shape=flexArrow;endArrow=classic;startArrow=classic;html=1;entryX=0.5;entryY=1;entryDx=0;entryDy=0;exitX=0.617;exitY=-0.033;exitDx=0;exitDy=0;exitPerimeter=0;" parent="1" edge="1">
          <mxGeometry width="100" height="100" relative="1" as="geometry">
            <mxPoint x="-725.4300000000001" y="534.3500000000001" as="sourcePoint" />
            <mxPoint x="-725.5" y="469.90999999999997" as="targetPoint" />
          </mxGeometry>
        </mxCell>
        <mxCell id="bYRtY9nZm9wins2JhYsX-11" value="" style="shape=flexArrow;endArrow=classic;startArrow=classic;html=1;entryX=0.5;entryY=1;entryDx=0;entryDy=0;exitX=0.5;exitY=0;exitDx=0;exitDy=0;" parent="1" edge="1">
          <mxGeometry width="100" height="100" relative="1" as="geometry">
            <mxPoint x="-395.42" y="290" as="sourcePoint" />
            <mxPoint x="-395.42" y="240" as="targetPoint" />
          </mxGeometry>
        </mxCell>
        <mxCell id="bYRtY9nZm9wins2JhYsX-15" value="" style="shape=stencil(lZ3JkiQ3kkS/pq4h2Jdzz/R/UITFJqU5LEqRPcvfDzAcz8hU9XiounExi4S7AwZb1NQ+5b/98fMPv3/+lMIff3798s/P//XLj3/+/Cn/26eUfvnt589ff/lz/dOn/O+f8t9++vL18z++fvnXbz/+9e+//7Al9z/9x5f/3L/w33/pxUcZWymF//n//9Afcf7ff/n7X/K//vLbB/lWPsq3R+kkP9JH+fqo47V8eoT4Ub48WiX5JL+fHz2TfGkf5dNj4Hp6UvkA8tnWHx85kHzOH+XDo8L686N9/F7zWuCteHmEjz8/HhNWXx65iniCzVB0Mf3RYDH1EYKIh0Li+eOrb4+Kv96yiIdG4vPjRqi49vbIRcQTbMu11CriEXZBe/SPiynX6l6Izy7iAxbTde3lelUvxJv+eoHP1B9ziji9mXEdh6d4gPc+Hu3jm8mPEUlcFpPResxrez/FKzzqfLSg4vBVp24xFl8nP/fvk69D5NEUh8fQ5dOHXZYrFJWHd7/k7W1mukqiHpIlD7s+2l2S0TotSx2zytP60/U6nvKR5bt+30Dy+bo5Lvn0mPR9317fU76D8Y52NyTc/EtezEji/bYOtspnWk/R77sua5YfReXpfVb9vuuD0/PWR0kqz7/fVT7Q+WqXJXsnD6Ztyct5iZf1eiVfo8rzetR3eUxez6wiT67R9hSHysO9suSLrh/3c9f9vOTJXnXdz0ue9vNybsQXvG6+V/JVf7/ResZj2O/T+5nX9n0nT99rPorJ8+93fZ/oWofLZ3knD/Z5yRfdb/R+lnzPKg/nMdl9FK8P8kpefWt0IPf/1vNI9+NNbHM5Wvfy6YqsnvKRQpXk5yWwvPhK4TF5PTOKPLmR+zrsIt/p/b+5I+/k6f1n9U/Co4E9XJ6jvM+A5327vUnlab9V3W+BQ8uq/sOSp/dZ9b4Ll0NxL7/ui++U9+cl+a731+H7Lnuu3+sgP4bKU+g9HiWL/KDvOx+hqjx933ltl2+Tz0Gj43AZgHv5qLmAo3zT94Py6XKXv1l+2u9TqiFfmYhvsw+5XAH3O3k4v0u+6vmd9PvL31P7T/ZwyXe1nxHsYbbzFS8H4ZW8+VcU7+Tu93ul5+2Pav4D//5U+UHrH5f7/m3+7ZIf6m+TP5+n+lfpSja+kjd/m/yNEh5J1zPg+5Y38/Qu/qLs1vqcH/dPxvt6yQ+NHyl+Kcl/nzIn5SbepP1ZsuZG8xXAvZK3XAvK23k/rKeoPT88b9Hv9fZA9/JV4+s3h+WVfDZ5uF+WfFN5yl8ueYuvMflq8eCSp/3WLnf53f6n92/xHecTSr+O97vzyPLibyRM9RezV8s+0Hm0eC2hvV3ynn9g+a7vP9L6p97vbD+XfNJ4hLK8S15rMxiPL/lu8TvsnxrU3+N4fMlnjQfJH17yfn/x71s8RfFjjXre3wK4V/JZf7+Cfa6Wn4yXAXsl3/V5M8knz5+Qf7Lki+4f8n+q1a4C5n9q1mIR+5NLPlt8R+vP1//+tviuFvX3ApeXLN8YMJu/5KfK4/e1glTg71uvx3vKJ1pPc/+Z7q8lX3Q9lM9c8l2/b4D7t3aPfym/veSzPm+A+3TJd31e/P2h/nPg/T88fjnID93PlL+t83LvvnH9U+1h4Prn9P0Z4Ly0oHW+tR+oihj8PJL/1uL1c+/2P8tbfFdI3mr/bxfIK/mi8pS/bUnzn5wPaVnzn2wPW/b10H295M0+UL5uyVt+nvZzeyvEftv9suSbxssZ9nOrhnXA+G7Je76aauj1uq7e+TNURG9qfyL6z0ve6k10Hlt3/xPfZ3f/PNH6uz5vuhzGe/nh8S/F4+3GH870/ofm6xLej23qfksIZVnyTeURlxC8fkr55P52/b+TB/u55Kf6/wiriJr/ZCjRkrf8wwB71dNl7r9xPZYPTJjPXPK2P8n/X/KW/6H8ds9eL6b8/JKvuh7K/yz5bvEpPW/x90n+YS+az0+XAXslP3Q/0PnqVespCfMhS97eD+WjlvyweJP2f9N6euT92W7qufS9mmEH0f/vXeORiP7Akrf6IwKXutqfiHiGJT/tfqTfHx7fERRwyRetL1P+bcn375KfXs+l+2LJV5WneGfJT5OH3x9B858R8UUjeL6dvu9Y7o7Jw/qXfNX9huuJnm+nfNRImm+MaB9G8nwO7Z+RvT6CSDyr70T0T5b81N+n+HQYmjRiPLLk7XkJzzPMfh5+v7p/S/7baJ5fovh6vOFT3/nn9H6a7x/y50f3eh/lk5e8xXeU/xnjJt6h93lXn6X3Mzz/QPnJMT3/QHi5JW/7DaGl5n8e9vP0/Z/h92fw+Ivy20ve8UWwnhlu4iNaT1R/LGK9dVr8zni2GT1eoP08k+ZzjvJF/U9cT3I8JOWj5lu55dv8pZk1H8J4vGl4Ts7/L3mzV5QfWPJD9yfFv7O4fSP7sOTtvj7Imz2cYB+WvOHB6LwveTuP+PvV6+/4vaqeR473l7zVjyifNm/wooXep+ETuL625IueL/LPl7zhq/F8db1/M/ozS758Fzi/X9fJUx73w7iu50u+oD+z5OW+KPz+LX/CrUlLXuLBiv7MtPuu8v6can8axlNLXux/5/0ztb4zsP6y5CV+mViPW/JaXwuYQFwKUmDeLQd0Ig1Rsru36AhMC5kztntthaEKuEmnXdoFs0ZbQZZU+VqyssEGavNDK256nDaGAMkOlaqtIJYx8lV8p3B6S6LAyaybZ8hYbb5RKJgOulGofF/6M/Qrgv1WhcEdDSFoC96hIfBOY7KXaYvK4fhiBUZ08JPnBSt8U0hYyN9mQP5CxkzknOr55oKvaZtKUWiYW5lWO8wdm7f8csiDFayamSemM5aCuMslXAnuVwpi70s8KUgBpSSsIC4FydiWzC6YQYxLZp/ZekxKwaT2dmKkmZIbmpdCkobHdnKTgilgnNAUx1w6Jsa2YzhVgTKr2/PMqkClmuUKT1egt2S5ma1ARqCqM1M6R8tFL96tQG+paHvlWeFmSfRaiwYAS4EqWtMQmkuBIK875JS/MLDGOa3mvRSID2AmO3EDs8QzadZlKaC5T5rWL4Nfq/XZlIGJpmmJ3A3tI0MWNbNWJrtYUUPhDQak8xC1FlMO1tvAHEsBbWvQ7qgyEa68FKI9A+FRxrQlDSxgjqkFpf2lOSOnEd/AlrBhEM+twDnLYrv1oCAgrr29OUs77C1hmcJgtmVwnaVr3qAMLiRY4W1Db8EujXbzWqk0uVPl9hcw993MdeiYvBzVaAk6RhDD0HrbGLNC/q4baClIf9K+dqkAUewAdd4axTyyjiXKpZDsBiLMya4B2VuiGGUpdFsS2dZhWdLS8I4bSePd0hCXvOtqURXIORlGDLAVuHInmZmtwKVHvUUb5lqG5eaf3QCvFNQTaBebxSuF4Evi8qzkTs4Kmk87KqiDdXgGC14PCn1qCvqsoCfuqKAnjh+6D3NOjgo3zwB7qQ/zBBoasu6J1oadtL1rxL4V6C90JfPZRoCwMd2MccP7YYNLzJARGrpbdrwwU9ZSqGa9EQ9k/T/7fqC91DQncIiyNiLIIkUq8W7IkXkz+JaqcQ0N9Cq7FXG2g0UPXW6WhDA3D8smJoE3TiyoAgJrjHhlO+uEDMr2liZCJXuy4HUyFipZTmBimqInbTYqk62GoRPLZPiXtceUiXmNpSD4o8oA9W4ERJVTj906tHdPEf0FayGtjHnu1gNVuYjbg4I86gGlGBRlVjOWXXrQD1cLpu2aZXRrxdTjVpDX2vBMNyu7PHtJXinIXqrj9Azi3e9uDAJvT01INd4abWq6aClQ+3uz8tduUODXKkFTy3imt4I8Q7muyZcKH09cq+hK3yg0TLXcKPTjWxKFwah+e+jObTlLQbKhnXlZmvl8PaEn0Iyop2dEDjVLhPSCPl+zUu2+6gnbPzUc6Bz4bXD/xytr+5l8HgRtMQJmHZrBU8fxO4j7MxjQ0cyVHswY4B0QKzqlOK4ZJHeH5PThhmZDN6qRtoYVXZYCHqChl+JOvrCCfofD1uiK+x3sVS4FCcB3mo07acTyDS5b7ladj9t7TAwHltmSYu1kcqBm5B87x0vPYN2ak9sJloLABzdAjV6r9Y/OjIRXy7hLiXAWpik1BoRZMODYLV+ypIqIjVbVzDxRVa8UxFmfjW2roYw37oke2mBss/MzFO2Tn52td7lwwu8UDp2AQ56Bo6yWNZ7exVtWEKz6E/30SiHaX8DuvmSbb2D7+FIQ9tUnwOqVguAVtwL/Bd1LAztgWlSq3K1Au9WycEuB4ELNetK2An24oNWBObgLNWh9enI8Xa2sc/hw1XBnk8s61ao0W4E7w/1L025d4YUfIIpQqnGdzYHWu/qFwhFKbTfb+6CQ7KEpaKqW/ZlcOKpW4dgK9OGK5vnOCjd/gVi7s2bhzgpSODopGGvGWeHmO5BC1Fh0csm8RnWlJ/Oy77SHPTS1Au3Eij0DclfNmyOKZEvz5kJBNq2hicGNBiL6GyvVTsY6FGMu3wrgOux0rG0NCi2LMWicFCxnfFa4+QtMYnXzDKwQvk+hqLN+Vgjfp5A11XJWiHYeUCFpHHfaGunmfqCCdknmrB+2t2FO5kA4+Qbj2YdDvrWoicHDDVSMwHcycLhYcnO7DkwJOO07UOCXLQu3UfKsEE2BrLezIE5OxWejodl4VOIZHcq79oSlv1LQ+GGiV5m7dmI/MeCvFHR7TwShb65LnWvCbEC5mXcy+VM3bQebHOMvBbUzh9dkI0X2h6DXVO0anRhxZEN4TC6iZANszIlhVvaBMROTAkvh5kDQp043m4nsTE6KLNhnlJYUNUM7B2ZCsnVGzoFZhGzU5ZMxhj7bY5s+VvCbnYooydKhBy9xd+eYAoGlk6Grd9qB/oIR2iwFZLg2xtulgJTtzXZrR2ucPAjqaO+TkQJPxiM9B/28zxfRMxRLbDTmoXaHqTFRd7GHbsx8nnUSwWQ80qZuNwUKqJ+tgu8UqDC6exenKYARSDbNZSf66C1FC4Ia8llt+gN7rVRvfvK7v1egvxA0F78U6IjGqeDQ2dCt3DMhxAhUzBfFoUj9nXCljqChQIFZeezEsBClIg9cdDNTedCPtVhMLqLEZu59wYTrUhCI1CxYq43VMiEFqy7RM+WFpyfZdIJZeFyOjT+YhfeSzVeYGYuKz9F77xQOE4g0U34YYZUsKZAR4LoUpId7dzjw0Cg1ApnfUjTbykXFGLVAPQ9zmjz9k3hwV9DG6clMcrvvdqoCXYoxaOv3ZO4nowaaPIvF4BqTuQi99TgiTs2q2ZNndYyb8iBy/ZiXwVyiQxHGm5yEuFc0obHJTwg1pz7JLqDiyECBLQ12b7um+MfAHWejRgbD+Zvu6Ce5zQt5rZJ3xgepczE6c78q9dxg2G9VUPs4TacUKqdRD3M+xQjt7gRKP2maZBTmmte61SgIWLTRAEuesr1Z08mDO3SNKnDw7IGs530jP8jb1NTwSOw7ahw/IgacydbP3FtJU0KDx8QmzQh1TiFZ/0GfPEtPiySbvI58Ot1vvbP/ZHimhs8b1QPslWcTagqiF3TEg+YhNyIX1h/U3m70K+yfoPu/B6x4Br1fGt8XwYbjDrQnwaCGHfdP0NrLxsfA+7dRpxtoiO9fHMWNykB5aVhuPIvU/JnGXJzWC9kYq+aY24kBR9DzW7ntMGhrWeXZykFToZW72IMBpQuGZNZ4U7lx3+UT+m++Hp79ZqMuCidmg3VWME4jWNcnI3iMyni3q/D+tEYm8h+CtQ/Xw/uXEKMUvE/tvJSM9j9Y11PCCN07vZh73exDZpYSG+WWB9INBOP36Ni0HmzUUcMWkqDRf66H7ytJmJwR5RO06pt5lo9RZ2eeRWptDjmg/xCMWnAczotShffTfSpUyQ07Z4NRSVds6A+KH9opVtwPSu3O3OXRWHeYWsWpbrm05aNwOsYL0ag1OyJFjRp9DxfG55X9HxmU6VS93FAYtTYSG9oHyx1HbieM2m613w+laIzqsB/8VZfH2cNGfMZtFjZ6Mo7D9xV/8jlM+dX3aipPvZBW8YuMqYo2GmnwrHH1PyOjkXyUcD/sZ6XKZG6AO3nC50ZtIIwd4VfRqKcbzw7XfFTkvh7LaR7Po1LdNoyXo1HHt4N9k/zhej84u/3mvJB/e3ceqT52ex7x+97Isz2U551YaDX7eZhlZecrcX7D9udhtmK00SrlcH6lNLGHL+N6ovkD1Nhmo8YT4/AsP5CYEChoh2Tm5ijLJ2SebW/+yfL3aP/Y6L3lTx7yG+JvV7Q/5l8tf5juu2CMfXzfGfvRhmnh+1cKEG4SDNbhzdzulm/ZTHe4fuUa40Yzp87gPjPL56x4kM5XUHu+4k0qmwXt0tzkCLge7TZnfOWdPO9PpeWYWAa3+KvybAmXT5j/d/mM/oDLl8P5FX9pdwegvMSDlf0Tiwcrc3/Zfm5cLws33dYU7xjAvfFsKkOq7o4o/H3Jx+62Mdw/w/KZdL8HRV20k/8j+a7dQ8nxoHVNU34jWv5zYv7Z7uvOsz/Nf+7cHG/Y5Z4xH2j8er0gY1lULETnvsRo+fmGjS3WSdYPwDfN1/VxqAdJvqtza1tS+/wc7vNCXuLZwbNFk/ozIzAs1ZrDedaLtSMuedqfWeOFwbP9sp7Hwc25RetN4zB7W+sjI+N+K9YhnfF5i9Ur2X8z9tRRsGu2WgN24dnMth8qUyQoyHLT8WF9X+LHXU/H39cW9Yb1lK75tE1xiHgJpcrvTCSj99cBn9A1vhgd8TbGtDyYGXzo/T64nmtNEONAsarx1ziQjWq+cTB90bT9wP7e1HhkBp4VcYP/wXq3FTzm4YI0D2tGjEhiMNxZ5BScxcyTedajzT+fXMSO0UCPPIFmg+3koXnESvQe8MR5i2Q4feaK35DErAroOWUNVSeP9YyO3s6cmyrWYJGxOL2hoQZ6JO84VsP/8XUTzb5vaCgpND3QM2PBM3o7UMGMSjTKjw2gpYc2jsEN0WWotLbsMftFHOp1LQWEhg6lMp2VcZhGFHRCPk+zGuz4emV1Vsxk3IDiK6YmbmD3FX2v5KwL9dRroK0DFdGnN80Jlbt7srWWVYR7p2yA1YoF1pQVobUVuA0l2ZIoJb8xgfbhqKacys2S6Exvr9M6MshrS9UA5Q3DumSDCnZXCcU5NjthN7rQQ9vQq8lIp+S9ljzOYWN7xZB1jI2eY5neKVBxzb2xyUTUaWr5bjLR6I2/xHi/bICJ2bnV0jIos3NHqrFJHvqnsxFczoEY0GyTDSYzuedsHhnTljzH1rxTICOQ3QgM/g7ekMqc/Tctr8w3c9NUy6mLm7ZdJqi5aQw+PLT7GgOrQ97dPAe3dN/RxxD+46ZD+7gkvdgHRqzZQsTTW3Jv5rAkm3+3dyspGGXggWQn3zXVYuuxDVM70TQEI2ziQmwJdkQ7egIlmlfJqYBi2JrZEVtWrFj9nEl0r+DcFEx1fcN+cVTQBrzOfDPO4NHRE7jhCDkoOAvJUUHbdg8KzqRyVLhhniMFZ4M5KugBOig4o81R4TufwVl5mH7yhvenM8+JMwsx2KPYdLfJaLkbdiSGd1VPF3Xshr5heOqYkLrhkGJy+RuWKnYSb3iweKrYDdPWQcG5vI4KyhZ2UHA+sqOCprwYCHTDqXZU0Fv08B3uKBEOCk7rgEtqN0eUgqYb9ryO0e4NPx+PUtsMgPalKW1X3Tnh2Ws3LIbcgrh5Eu0ZkDHZmRiZXuOG65Gf4YZNkuO4ZrjErUBLctIF3hpLwSNFysLtxhx7BiQPTjeeALKgJ2N46sxcnW+IVMjBajaWb3YuX3lnPXOKtGx3HOc1WrH7oeGluFluLV2ELbzFWvEr9vS1Yke0YqK8uYPFXWKbbdhSwARD2nzG8hcyph6bzbWciflb3dwn3nzVDhBXaVqzM82lqdY0Gzoms9w2ZS3Zg/qY31vLg4NJnLv1wzKetnUFVA0OmpoF4KOxbe3qaywFKrm2oRiRwRjWNgw0UU7U73Ltnunrte0/YSaxWepxRMS5tKG5+8HEC88+1UuhM1Vds4t9tybThxuaOemcoG1Di1+98qVoAUdnbpdmdBOdWUvaNLwR909uBQNkHaZkSIfpeayGKJwHd6gCT2xsU9MUjZt6bhQquz9T2zQbt0X6DIt1ESPJv6XiW+LpDFNTjy2enkEyJy1gwWIreK8yT40R8E7lkad7+IiP++G/IGXOFYIgfb3NdNkji3jcj9xxlQFRewKRdzjzh5NL8Rkw3yp073GOzPFiTe81oLnv1rVfA6L4u8PmJ0ZZS0EM2R6ldhjhJUB1ZtTv1nl0GNDbja+pcM64G0ilDHTWe7qZGUxeZU/WXdDxxHWDWxZuR+s+B5zLa90GRhR2sLohKA8D3Luxi5XOM/CK9QAc5ikaEWPhJrDuM+X5QumGmzlMku1W0C4HHGJV4F9pmHrcQyRtVi353kvBn4EwJ93I80pF7F/vNve4YjKndxtIypHiHhcaVIHuh27VssJ8Sd2GIpXKhswSUqUyI5aPbT0q6GBYhvLcjJ49KmgXTWVT6eNzWeFmQO9RQY/oUUE7pfihb8YY83e4GZR8+As+ivnwDD7s+fgXdJz04Rl8YPVRQe+4o0L/rs23x3r7M9CU7qx578JItaWgY73ZaiwF3xqEUl/xudLIMLnqKDbmvuLFvmnYnBiGl6TWu2Hn+55ab1Q1iZZUNeuwryy4UJ7Udu8V6Dw09YwLo7yGT1ZmOpDdHdBMgT5cuxl+TqnHYYyJh6HbwxJShVmih99x3GO2KRvd/aFnGHdTullBz3TDEH+zWpqjS87JmIrBKkyMMGy4beHK6zTqssIlkem9vR1xM0th2jOQs76B//YXDgrNnoFyxtMvFK6LzqQgxsITfWfSckJhnMC0ss5hgPuG5ZvVoNByw/K/68RNq0/vM03P4FFWQ/7j6aPJ2ZBNv1DYVE6r0hyM8WbONutN9/Q0FHBp6Do8odTvryxaUtVur8OluFnYzdfA9iEb5ll4TOUGCZtzQvfDtI61UjAnMK1lrTCFxi5qyvbOGItOIwUuCa+sZzX6nQKh7TaEV95SZCMwNH1amEdj2qTAzON+pqEeMw9Feg4OeVPgvMYTzfqm0LD5Zg8/ETK6ykZgKmY9FxySMW06dE5Y210KyncXEY09bax3Dug6TIN6Jmb4u1Hg0VG3ClTAmzbA/dk2+q0K7N3fKBREed0oZIxQbhQSGzJ/S5FNpU2tTxHTp9MGuG82yMNDC/naxGT/tLxG5HzrnDd0WJTn2wofD1CsCKmaBjGM3L3mRzRm9lst+7NnIxyshnBcxZOC+EsxYJ5vWgZrsmM8jMUeo+lp09g7b1WLZ5gkbRrylEmNNji9iDzlo6chBCpiz6fNVa8I8XyCUp/y2JTdjeWWw4xm6cCTz6OhFaaIttum68H3WbUOn5FEblq2PrP/b3hthls8ezWf8mi3iq+HElzTJpdntinFnCOsge5oZKg87Z+sJdCjfNP1JA7YlKWXPWBrKuAhAhu6pe+f8rbT6nqZA51kXhSfx6SAIC5B7yi+qzw9r7E0ZnaIoto3Hp0zg4KnEyJEprGYHXwVm2qcMBx/wtqe8nQed7JJWHpx/wy7sxN6Qkte8IxMpzAMKxXRRR7DWFN5CI5FWxGBg6MrApqHBA1jUWGSydG0OBqxELmzuvZ+KDfY1L6xqzsM7BkRSDaqxmUcNO3cvbBkcjLUILoJIVvDQMNMmrTk7TzifjbWp8Slh+TPi7ncpPY/IQx7RPU/eejDcNZUvL+GsXInzDVsKKTKY1kj6H3NJHjdpnAljCa7BVbMndIN/ZYQDNqHsa4jKV+30YOJ8U3DWGIZktKNpR3tW++aRk8Yj/SuYSQPIXLgBDPL9Kapp4T+7YZ+6HoQRWT+dmakSHV/A4FT1aYOMEKu6vfNR0CQ+lcUH23Eka6fKj0b0pREnu6vblOvOB5Z8ubPkz+w5JOun4YsdGt84aEGG7em/jlxBfSk498z739jYMh8vqLG+5lJ26yTOiPEv1v7VMaqWTd/NTM6zKb+8H7bHJ16Xihx3GzqYeb2GMu38HTOZpPuM+ZDlnzS/XzoyVDWbPQHmsHC8uXQvZJPam8R+GxF/3Tqi8l6f1E+pxnLVuLOnmos7XiftqLl+IT20Du42D9pNqye46PdtKbylE/fHL4yVQIz/M3yAxFJO1t2/x97VcxfjdxuY/4qD0VtxirLJMnNpu5FzP806xFnRsFmrMo8xLAZmQYPTdt9B7oeOr/VaIoiD9mcmh+ImK+oZg8jDwk1e3iUj7Z+ku++3yheq933G74f8z+Z9L42JQ86ylv+gYZE1Kb3I5MG16r58Ij+ZK02VQXju1o8/0D4wWr2k5vlavH9QPWRmtX/iehPVrOHXJ6vWd9/wvxhvYnf8X0mj++oeWo30Oh9ge8zamsgD+GqZj8531htShbHazWqf8v5zxo0f87+STXkWcb8T7V8ApOuV5uSyPHdpkWxfDKRYDtIAGELz96ib8u3FytYZgSP7FYk9Vcpn7M7kcx/ZiabpPEF+WO76Ue/L/X4F4OQ8hCKDdnT/UAMYcXysTyUcKPjNF6g/fzEEV/yhcm7rDWe64MbzT1VnvazTfUuWB/ZBFAmD/anOFabf7/ofXpYv03pPrwf87cL+g9LXuxzQXtS7L44yn/ffogG0sb8VYk2VRTz/8Wobw/nxepTGetT2XpOubl4ySc9Xzgk3VrnmZg6D83n8BCE3LV+mhAfkrthjTD/4LSMTA6eDZTJ9YVs7LLcZJ+rTYXE+33P0FJ/mPJjudjUN8xX5+L+POWjstV3IoLJsrXs8NDYbPnAg7xPqTzJB/X/Ud6mAnP8nuw8HuX9/RPt7k19lvKBqStKP+L5SkbLxfthyVs9Gimom7KDHH7felcP8lX94Yj1nVQNxof5tCWvgDY8X+s60amomN/zKTIcryWjs+P6774eLL6j95l1PYmJp5PXi5FLPql/xfY5WZNhYib55PYZeeGjTXHG/LlPjWL8+80UTIzfd7pE14OM7Tb1MGGP/p4Sp+uneo1PnU/oz0ebqsL58A3TtXw72Odo/MAcL0fL1yWsf+15Dbp+wm88Zwy/85do/TfxGg7+6O7v4ZDi7vgxHArc9bxzvTU2xUvwEKto+E+u78SmyG/G70Vr6zz+frD10O9XmyqKeMho90tGWpslH1WeINyxaEcnk88tecv/UL1vQ851P+CQ8aL+FddbY1Z8C8dTMd/Es/z72gKFeMiYNN45TIyx/GThAUreVc/v06lpeCik4TMLv09j8+SWsmjU5BXj62jUCRX9jd0eoPh2nP4UHK9O+cAYFF9XuZtM0y3MUDBtRutBXGm1uCtesaiVsWDax1MxFWiVd+4s6LqYA0WM7svGtFLqtjVMqxq7ZGPGNDXK3HLe1Ofp+FWrDQbFENAIgwZX4HTP8HwQH8iD588JWTF8KhadBdySWdELkcu92aq3EZsOs6I1IsP7kqJ3Il/PyaqZnH5Nli0p7L4ry1GsnD7Q2237SzgDWNAUkVn2olWTB5tvq/7zzFojlH/6z6/kq8rj9ay3yVFe99vA9hKbMRzHYcZwseel/RP1PnnGC6/ki8pTuvBOntJJd/Lo7mg0F3lKQlRvKvLQkLP8+offf/jz57/+5adffv31jz+/fvnn5/f//6cvXz//4+uXf/3249t/+uPnH37/vP7tfwE=);lineShape=1;fillOpacity=30;strokeOpacity=30;fillColor=#d5e8d4;strokeColor=#82b366;" parent="1" vertex="1">
          <mxGeometry x="-1539.208785314632" y="265.77998719882817" width="959.102314158384" height="254.52425200135076" as="geometry" />
        </mxCell>
        <mxCell id="bYRtY9nZm9wins2JhYsX-16" value="&lt;font style=&quot;font-size: 18px;&quot;&gt;Original source artefacts&lt;/font&gt;" style="text;html=1;align=center;verticalAlign=middle;resizable=0;points=[];autosize=1;strokeColor=#82b366;fillColor=#d5e8d4;" parent="1" vertex="1">
          <mxGeometry x="-1275" y="485" width="220" height="40" as="geometry" />
        </mxCell>
        <mxCell id="0Mx2ZLFX2AhZIYMiqBFt-5" value="" style="shape=flexArrow;endArrow=classic;html=1;rounded=0;" edge="1" parent="1" target="bYRtY9nZm9wins2JhYsX-4">
          <mxGeometry width="50" height="50" relative="1" as="geometry">
            <mxPoint x="-920" y="440" as="sourcePoint" />
            <mxPoint x="-870" y="390" as="targetPoint" />
            <Array as="points">
              <mxPoint x="-900" y="440" />
            </Array>
          </mxGeometry>
        </mxCell>
      </root>
    </mxGraphModel>
  </diagram>
</mxfile>
